<svg width="33" height="32" viewBox="0 0 33 32" fill="none" xmlns="http://www.w3.org/2000/svg">
<g clip-path="url(#clip0_40_13)">
<path d="M5.56481 22.4396C4.03575 22.4396 2.85368 22.0515 2.01858 21.2752C1.18348 20.4989 0.76593 19.4051 0.76593 17.9936V14.0063C0.76593 12.5949 1.18348 11.501 2.01858 10.7247C2.85368 9.94845 4.03575 9.56031 5.56481 9.56031C6.87038 9.56031 7.95248 9.91905 8.81111 10.6365C9.68149 11.3658 10.1167 12.4302 10.1167 13.8299V14.0063H7.99953V13.8299C7.99953 13.0654 7.74665 12.489 7.24089 12.1009C6.73512 11.701 6.17055 11.501 5.54716 11.501C4.66502 11.501 4.00047 11.7069 3.55351 12.1185C3.10656 12.5184 2.88308 13.1007 2.88308 13.8652V18.1348C2.88308 18.8993 3.10656 19.4874 3.55351 19.8991C4.00047 20.299 4.66502 20.4989 5.54716 20.4989C6.17055 20.4989 6.73512 20.3049 7.24089 19.9167C7.74665 19.5168 7.99953 18.9346 7.99953 18.1701V17.9936H10.1167V18.1701C10.1167 19.5697 9.68149 20.6342 8.81111 21.3634C7.95248 22.0809 6.87038 22.4396 5.56481 22.4396Z" fill="black"/>
<path d="M16.7708 22.4396C15.4064 22.4396 14.2596 22.075 13.3305 21.3458C12.4248 20.6048 11.9719 19.5462 11.9719 18.1701H14.0891C14.0891 18.7346 14.242 19.2051 14.5478 19.5815C15.0889 20.1931 15.871 20.4989 16.8943 20.4989C17.6236 20.4989 18.1881 20.3519 18.588 20.0579C18.9997 19.7638 19.2055 19.3757 19.2055 18.8934C19.2055 18.4465 19.0115 18.1112 18.6233 17.8878C18.2352 17.6408 17.5295 17.3232 16.5062 16.9351L16.3474 16.8821L16.0651 16.7763C14.7125 16.2587 13.748 15.7647 13.1717 15.2943C12.5953 14.8003 12.3072 14.0887 12.3072 13.1595C12.3072 12.0656 12.7012 11.1952 13.4892 10.5483C14.2891 9.88964 15.377 9.56031 16.7532 9.56031C18.1881 9.56031 19.3114 9.91317 20.123 10.6189C20.9346 11.3128 21.3403 12.3479 21.3403 13.724H19.2232C19.2232 12.983 18.9938 12.4302 18.5351 12.0656C18.0882 11.6892 17.4883 11.501 16.7355 11.501C16.0416 11.501 15.4829 11.6422 15.0595 11.9245C14.6478 12.2067 14.442 12.5655 14.442 13.0007C14.442 13.4947 14.6243 13.8534 14.9889 14.0769C15.3653 14.3004 16.071 14.6003 17.106 14.9767L17.353 15.0649C17.9764 15.2766 18.5057 15.4825 18.9409 15.6824C19.3408 15.8588 19.7584 16.0941 20.1936 16.3881C21.0287 16.9527 21.4462 17.7525 21.4462 18.7876C21.4462 19.8932 21.0345 20.7812 20.2112 21.4516C19.3996 22.1103 18.2528 22.4396 16.7708 22.4396Z" fill="black"/>
<path d="M28.0906 22.4396C26.7262 22.4396 25.5794 22.075 24.6502 21.3458C23.7445 20.6048 23.2917 19.5462 23.2917 18.1701H25.4088C25.4088 18.7346 25.5617 19.2051 25.8675 19.5815C26.4086 20.1931 27.1908 20.4989 28.2141 20.4989C28.9433 20.4989 29.5079 20.3519 29.9078 20.0579C30.3194 19.7638 30.5253 19.3757 30.5253 18.8934C30.5253 18.4465 30.3312 18.1112 29.9431 17.8878C29.5549 17.6408 28.8492 17.3232 27.8259 16.9351L27.6671 16.8821L27.3848 16.7763C26.0322 16.2587 25.0677 15.7647 24.4914 15.2943C23.9151 14.8003 23.6269 14.0887 23.6269 13.1595C23.6269 12.0656 24.0209 11.1952 24.809 10.5483C25.6088 9.88964 26.6968 9.56031 28.0729 9.56031C29.5079 9.56031 30.6311 9.91317 31.4427 10.6189C32.2543 11.3128 32.6601 12.3479 32.6601 13.724H30.5429C30.5429 12.983 30.3136 12.4302 29.8549 12.0656C29.4079 11.6892 28.808 11.501 28.0553 11.501C27.3613 11.501 26.8026 11.6422 26.3792 11.9245C25.9675 12.2067 25.7617 12.5655 25.7617 13.0007C25.7617 13.4947 25.944 13.8534 26.3086 14.0769C26.685 14.3004 27.3907 14.6003 28.4258 14.9767L28.6728 15.0649C29.2962 15.2766 29.8254 15.4825 30.2606 15.6824C30.6605 15.8588 31.0781 16.0941 31.5133 16.3881C32.3484 16.9527 32.7659 17.7525 32.7659 18.7876C32.7659 19.8932 32.3543 20.7812 31.5309 21.4516C30.7193 22.1103 29.5726 22.4396 28.0906 22.4396Z" fill="black"/>
<path d="M23.0796 25.9682H24.8439C24.8439 26.9915 24.544 27.7913 23.9441 28.3677C23.3442 28.944 22.515 29.2322 21.4564 29.2322H18.8453C17.9161 29.2322 17.4515 29.5674 17.4515 30.2378V30.6965H15.6872V30.2378C15.6872 29.5674 15.2226 29.2322 14.2934 29.2322H11.894C10.8354 29.2322 10.0062 28.944 9.40632 28.3677C8.80646 27.7913 8.50653 26.9915 8.50653 25.9682H10.2708C10.2708 26.3799 10.412 26.7034 10.6943 26.9386C10.9765 27.1738 11.3412 27.2915 11.7881 27.2915H14.8051C15.6519 27.2915 16.24 27.6502 16.5694 28.3677C16.8987 27.6502 17.4868 27.2915 18.3336 27.2915H21.5623C22.0093 27.2915 22.3739 27.1738 22.6562 26.9386C22.9385 26.7034 23.0796 26.3799 23.0796 25.9682Z" fill="black"/>
<path d="M24.8439 6.03177H23.0796C23.0796 5.62011 22.9385 5.29665 22.6562 5.06141C22.3739 4.82617 22.0093 4.70855 21.5623 4.70855H18.3336C17.4868 4.70855 16.8987 4.34982 16.5694 3.63234C16.24 4.34982 15.6519 4.70855 14.8051 4.70855H11.7881C11.3412 4.70855 10.9765 4.82617 10.6943 5.06141C10.412 5.29665 10.2708 5.62011 10.2708 6.03177H8.50653C8.50653 5.00848 8.80646 4.20868 9.40632 3.63234C10.0062 3.056 10.8354 2.76783 11.894 2.76783H14.2934C15.2226 2.76783 15.6872 2.43262 15.6872 1.76219V1.30347H17.4515V1.76219C17.4515 2.43262 17.9161 2.76783 18.8453 2.76783H21.4564C22.515 2.76783 23.3442 3.056 23.9441 3.63234C24.544 4.20868 24.8439 5.00848 24.8439 6.03177Z" fill="black"/>
</g>
<defs>
<clipPath id="clip0_40_13">
<rect width="32" height="32" fill="white" transform="translate(0.76593)"/>
</clipPath>
</defs>
</svg>
