<svg width="64" height="64" viewBox="0 0 64 64" fill="none" xmlns="http://www.w3.org/2000/svg">
<g clip-path="url(#clip0_121744_387)">
<path d="M22.5668 47.8935C20.0412 47.8935 17.6151 47.3963 15.2884 46.402C12.9815 45.4077 10.9332 43.9758 9.14347 42.1065C7.37358 40.2372 5.96165 37.9602 4.90767 35.2756C3.85369 32.571 3.3267 29.5284 3.3267 26.1477C3.3267 22.767 3.84375 19.7045 4.87784 16.9602C5.91193 14.196 7.34375 11.8196 9.1733 9.83096C10.983 7.86221 13.1207 6.34091 15.5866 5.26704C18.0526 4.19318 20.6875 3.65625 23.4915 3.65625C25.5795 3.65625 27.4687 3.91477 29.1591 4.43182C30.8494 4.94886 32.4602 5.67471 33.9915 6.60937L35.2145 4.58096H37.6009L37.8693 19.6747H35.4233C35.1051 18.2031 34.6278 16.6122 33.9915 14.902C33.3551 13.1719 32.6094 11.7102 31.7543 10.517C30.7997 9.16477 29.6662 8.11079 28.3537 7.35511C27.0412 6.57954 25.5398 6.19176 23.8494 6.19176C21.9205 6.19176 20.1207 6.61932 18.4503 7.47443C16.7997 8.32954 15.3679 9.59233 14.1548 11.2628C13.0014 12.8736 12.0966 14.9219 11.4403 17.4077C10.7841 19.8935 10.456 22.6676 10.456 25.7301C10.456 28.4347 10.794 30.9205 11.4702 33.1875C12.1662 35.4347 13.1506 37.4133 14.4233 39.1236C15.696 40.8139 17.1974 42.1364 18.9276 43.0909C20.6776 44.0455 22.6264 44.5227 24.7741 44.5227C26.3849 44.5227 27.8665 44.2741 29.2187 43.777C30.571 43.2599 31.7443 42.5838 32.7386 41.7486C33.733 40.8736 34.608 39.8793 35.3636 38.7656C36.1193 37.652 36.7358 36.4389 37.2131 35.1264L39.4503 36.2003C37.7401 40.3963 35.473 43.3991 32.6491 45.2088C29.8253 46.9986 26.4645 47.8935 22.5668 47.8935Z" fill="#F1CDB3"/>
<path d="M59.1975 60.2727H41.6279V58.1548C42.1052 58.1151 42.7912 58.0554 43.6861 57.9759C44.6009 57.8963 45.2273 57.777 45.5654 57.6179C46.162 57.3793 46.5995 57.0213 46.8779 56.544C47.1563 56.0469 47.2955 55.4105 47.2955 54.635V39.571H27.3992V54.3068C27.3992 55.0028 27.5086 55.5895 27.7273 56.0668C27.966 56.544 28.4233 56.9617 29.0995 57.3196C29.4375 57.4986 30.0341 57.6776 30.8892 57.8565C31.7642 58.0355 32.4503 58.135 32.9475 58.1548V60.2727H15.3779V58.1548C15.8552 58.1151 16.5412 58.0554 17.4361 57.9759C18.3509 57.8963 18.9773 57.777 19.3154 57.6179C19.912 57.3793 20.3495 57.0213 20.6279 56.544C20.9063 56.0469 21.0455 55.4105 21.0455 54.635V24.0895C21.0455 23.4531 20.9162 22.8764 20.6577 22.3594C20.3992 21.8225 19.9517 21.4048 19.3154 21.1065C18.7785 20.848 18.1222 20.6193 17.3466 20.4205C16.591 20.2216 15.9347 20.1023 15.3779 20.0625V17.9446H32.9475V20.0625C32.3907 20.0824 31.7046 20.1719 30.8892 20.331C30.0938 20.4901 29.4972 20.6392 29.0995 20.7784C28.4233 21.0171 27.966 21.4148 27.7273 21.9716C27.5086 22.5284 27.3992 23.135 27.3992 23.7912V36.9162H47.2955V24.0895C47.2955 23.4531 47.1662 22.8764 46.9077 22.3594C46.6492 21.8225 46.2017 21.4048 45.5654 21.1065C45.0285 20.848 44.3722 20.6193 43.5966 20.4205C42.841 20.2216 42.1847 20.1023 41.6279 20.0625V17.9446H59.1975V20.0625C58.6407 20.0824 57.9546 20.1719 57.1392 20.331C56.3438 20.4901 55.7472 20.6392 55.3495 20.7784C54.6733 21.0171 54.216 21.4148 53.9773 21.9716C53.7586 22.5284 53.6492 23.135 53.6492 23.7912V54.3068C53.6492 55.0028 53.7586 55.5895 53.9773 56.0668C54.216 56.544 54.6733 56.9617 55.3495 57.3196C55.6875 57.4986 56.2841 57.6776 57.1392 57.8565C58.0142 58.0355 58.7003 58.135 59.1975 58.1548V60.2727Z" fill="#F1CDB3"/>
</g>
<defs>
<clipPath id="clip0_121744_387">
<rect width="64" height="64" fill="white"/>
</clipPath>
</defs>
</svg>
