<svg xmlns="http://www.w3.org/2000/svg" viewBox="0 0 32 32">
  <title>Asset 1</title>
  <g id="Layer_2" data-name="Layer 2">
    <g id="Layer_1-2" data-name="Layer 1">
      <path d="M27,16a1,1,0,0,1-1,1H22l-.09,0a5.94,5.94,0,0,1-1,2.51l.07,0,2.83,2.83a1,1,0,0,1-1.42,1.42L19.53,21a.25.25,0,0,1,0-.07,5.94,5.94,0,0,1-2.51,1A.29.29,0,0,1,17,22v4a1,1,0,0,1-2,0V22a.29.29,0,0,1,0-.09,5.94,5.94,0,0,1-2.51-1,.25.25,0,0,1,0,.07L9.64,23.78a1,1,0,1,1-1.42-1.42l2.83-2.83.07,0a5.94,5.94,0,0,1-1-2.51L10,17H6a1,1,0,0,1,0-2h4l.09,0a5.94,5.94,0,0,1,1-2.51l-.07,0L8.22,9.64A1,1,0,1,1,9.64,8.22l2.83,2.83a.25.25,0,0,1,0,.07,5.94,5.94,0,0,1,2.51-1A.29.29,0,0,1,15,10V6a1,1,0,0,1,2,0v4a.29.29,0,0,1,0,.09,5.94,5.94,0,0,1,2.51,1,.25.25,0,0,1,0-.07l2.83-2.83a1,1,0,1,1,1.42,1.42L21,12.47l-.07,0a5.94,5.94,0,0,1,1,2.51L22,15h4A1,1,0,0,1,27,16Zm5,8V8a8,8,0,0,0-8-8H8A8,8,0,0,0,0,8V24a8,8,0,0,0,8,8H24A8,8,0,0,0,32,24ZM24,2a6,6,0,0,1,6,6V24a6,6,0,0,1-6,6H8a6,6,0,0,1-6-6V8A6,6,0,0,1,8,2Z" fill="#6750a4" fill-rule="evenodd"/>
    </g>
  </g>
</svg>
